<svg width="18" height="18" viewBox="0 0 18 18" fill="none" xmlns="http://www.w3.org/2000/svg">
<rect width="18" height="18" rx="2" fill="#F2F2F2"/>
<path d="M9 14H4.43478C4.31947 14 4.20888 13.9542 4.12734 13.8727C4.04581 13.7911 4 13.6805 4 13.5652V9C4 7.67392 4.52678 6.40215 5.46447 5.46447C6.40215 4.52678 7.67392 4 9 4C9.65661 4 10.3068 4.12933 10.9134 4.3806C11.52 4.63188 12.0712 5.00017 12.5355 5.46447C12.9998 5.92876 13.3681 6.47995 13.6194 7.08658C13.8707 7.69321 14 8.34339 14 9C14 9.65661 13.8707 10.3068 13.6194 10.9134C13.3681 11.52 12.9998 12.0712 12.5355 12.5355C12.0712 12.9998 11.52 13.3681 10.9134 13.6194C10.3068 13.8707 9.65661 14 9 14Z" stroke="#747474" stroke-linecap="round" stroke-linejoin="round"/>
</svg>
