<svg width="13" height="16" viewBox="0 0 13 16" fill="none" xmlns="http://www.w3.org/2000/svg">
<path d="M0.5 11.5H0V12H0.5V11.5ZM12.8536 11.8536C13.0488 11.6583 13.0488 11.3417 12.8536 11.1464L9.67157 7.96447C9.47631 7.7692 9.15973 7.7692 8.96447 7.96447C8.7692 8.15973 8.7692 8.47631 8.96447 8.67157L11.7929 11.5L8.96447 14.3284C8.7692 14.5237 8.7692 14.8403 8.96447 15.0355C9.15973 15.2308 9.47631 15.2308 9.67157 15.0355L12.8536 11.8536ZM0.5 0L0 0V11.5H0.5H1V0L0.5 0ZM0.5 11.5V12H12.5V11.5V11H0.5V11.5Z" fill="#747474"/>
</svg>
