<svg width="29" height="23" viewBox="0 0 29 23" fill="none" xmlns="http://www.w3.org/2000/svg">
<path d="M8.03429 17.8683C7.99474 17.9763 7.98926 18.0938 8.01858 18.2051C8.04791 18.3163 8.11062 18.4159 8.19828 18.4903C8.28595 18.5648 8.39433 18.6106 8.50884 18.6216C8.62334 18.6326 8.73846 18.6082 8.83867 18.5517L20.6512 11.7954C20.7391 11.7468 20.8124 11.6754 20.8634 11.5889C20.9144 11.5023 20.9413 11.4037 20.9413 11.3032C20.9413 11.2027 20.9144 11.1041 20.8634 11.0175C20.8124 10.931 20.7391 10.8597 20.6512 10.811L8.83867 4.07157C8.73876 4.01569 8.62418 3.99162 8.51023 4.00259C8.39629 4.01355 8.2884 4.05901 8.20097 4.13291C8.11355 4.20681 8.05075 4.30562 8.02097 4.41615C7.99118 4.52668 7.99583 4.64367 8.03429 4.75149L10.2498 11.3095L8.03429 17.8683Z" stroke="#747474" stroke-linecap="round" stroke-linejoin="round"/>
<path d="M16.2795 11.312H9.04419" stroke="#747474" stroke-linecap="round" stroke-linejoin="round"/>
</svg>
