<svg width="15" height="15" viewBox="0 0 15 15" fill="none" xmlns="http://www.w3.org/2000/svg">
<path d="M6.37271 6.37415C6.10708 6.63988 5.95788 7.00025 5.95795 7.37598C5.95801 7.75171 6.10734 8.11203 6.37307 8.37767C6.6388 8.6433 6.99917 8.7925 7.3749 8.79243C7.75063 8.79237 8.11095 8.64304 8.37659 8.37731" stroke="#747474" stroke-width="2" stroke-linecap="round" stroke-linejoin="round"/>
<path d="M10.6907 10.685C9.69736 11.3073 8.54714 11.6334 7.375 11.625C4.825 11.625 2.7 10.2083 1 7.375C1.901 5.87333 2.921 4.76975 4.06 4.06425M6.08583 3.2525C6.51011 3.16634 6.94206 3.12361 7.375 3.125C9.925 3.125 12.05 4.54167 13.75 7.375C13.2778 8.16125 12.773 8.83889 12.2356 9.40792M1 1L13.75 13.75" stroke="#747474" stroke-width="2" stroke-linecap="round" stroke-linejoin="round"/>
</svg>
