<svg width="13" height="12" viewBox="0 0 13 12" fill="none" xmlns="http://www.w3.org/2000/svg">
<path d="M6.50162 9.90741L9.92281 11.9268C10.0116 11.9785 10.1143 12.0038 10.2181 11.9995C10.3218 11.9952 10.4219 11.9615 10.5057 11.9026C10.5894 11.8437 10.6531 11.7623 10.6887 11.6686C10.7243 11.575 10.7302 11.4733 10.7056 11.3765L9.77526 7.60835L12.8201 5.08785C12.8977 5.02242 12.9537 4.9366 12.9811 4.84099C13.0085 4.74538 13.0061 4.64415 12.9742 4.54982C12.9424 4.45549 12.8824 4.37217 12.8018 4.31016C12.7212 4.24815 12.6234 4.21016 12.5206 4.20087L8.52482 3.88881L6.98554 0.312097C6.9463 0.219821 6.87931 0.140856 6.79313 0.0852706C6.70694 0.0296855 6.60546 0 6.50162 0C6.39779 0 6.29631 0.0296855 6.21012 0.0852706C6.12393 0.140856 6.05695 0.219821 6.01771 0.312097L4.47843 3.88881L0.482669 4.20087C0.379111 4.2096 0.280529 4.24742 0.199239 4.30962C0.117949 4.37182 0.0575555 4.45563 0.0256038 4.55058C-0.00634798 4.64553 -0.0084411 4.74742 0.019586 4.84351C0.0476131 4.93959 0.104518 5.02563 0.18319 5.09085L3.22799 7.61135L2.29767 11.3765C2.27308 11.4733 2.27894 11.575 2.31452 11.6686C2.35011 11.7623 2.41381 11.8437 2.49759 11.9026C2.58136 11.9615 2.68144 11.9952 2.78519 11.9995C2.88893 12.0038 2.99168 11.9785 3.08044 11.9268L6.50162 9.90741Z" fill="#D9D9D9"/>
</svg>
