<svg width="36" height="35" viewBox="0 0 36 35" fill="none" xmlns="http://www.w3.org/2000/svg">
<path d="M18.0045 28.8966L27.4785 34.7865C27.7244 34.9374 28.0089 35.0112 28.2962 34.9986C28.5835 34.986 28.8606 34.8876 29.0926 34.7159C29.3246 34.5441 29.501 34.3066 29.5995 34.0335C29.6981 33.7604 29.7143 33.4639 29.6462 33.1815L27.0699 22.191L35.5017 14.8396C35.7167 14.6487 35.8717 14.3984 35.9476 14.1195C36.0234 13.8407 36.0169 13.5454 35.9287 13.2703C35.8404 12.9952 35.6745 12.7522 35.4512 12.5713C35.228 12.3904 34.9572 12.2796 34.6724 12.2525L23.6072 11.3424L19.3446 0.910281C19.2359 0.641145 19.0504 0.410829 18.8117 0.248706C18.5731 0.0865827 18.292 0 18.0045 0C17.717 0 17.4359 0.0865827 17.1973 0.248706C16.9586 0.410829 16.7731 0.641145 16.6644 0.910281L12.4018 11.3424L1.33662 12.2525C1.04985 12.278 0.77685 12.3883 0.551739 12.5697C0.326628 12.7511 0.159384 12.9956 0.0709027 13.2725C-0.017579 13.5495 -0.0233754 13.8466 0.0542382 14.1269C0.131852 14.4072 0.289434 14.6581 0.507296 14.8483L8.93906 22.1998L6.36278 33.1815C6.29467 33.4639 6.31091 33.7604 6.40945 34.0335C6.50799 34.3066 6.6844 34.5441 6.91639 34.7159C7.14838 34.8876 7.42553 34.986 7.71282 34.9986C8.00011 35.0112 8.28464 34.9374 8.53045 34.7865L18.0045 28.8966Z" fill="#D9D9D9"/>
</svg>
