<svg width="20" height="19" viewBox="0 0 20 19" fill="none" xmlns="http://www.w3.org/2000/svg">
<path d="M10.0025 15.6867L15.2659 18.8841C15.4024 18.966 15.5605 19.0061 15.7201 18.9993C15.8797 18.9924 16.0337 18.939 16.1626 18.8458C16.2914 18.7525 16.3894 18.6236 16.4442 18.4753C16.4989 18.3271 16.508 18.1661 16.4701 18.0128L15.0389 12.0466L19.7232 8.05576C19.8426 7.95217 19.9287 7.81629 19.9709 7.6649C20.013 7.51351 20.0094 7.35324 19.9604 7.20388C19.9114 7.05452 19.8192 6.9226 19.6951 6.82442C19.5711 6.72623 19.4207 6.66608 19.2624 6.65138L13.1151 6.15728L10.747 0.494153C10.6866 0.34805 10.5836 0.223021 10.451 0.135012C10.3184 0.047002 10.1622 0 10.0025 0C9.84275 0 9.68663 0.047002 9.55403 0.135012C9.42144 0.223021 9.31838 0.34805 9.25801 0.494153L6.88988 6.15728L0.742567 6.65138C0.583248 6.6652 0.431584 6.72509 0.306522 6.82357C0.18146 6.92205 0.0885469 7.05474 0.0393904 7.20509C-0.00976612 7.35543 -0.0129863 7.51675 0.0301323 7.66889C0.073251 7.82103 0.160797 7.95724 0.281831 8.06051L4.96614 12.0513L3.53488 18.0128C3.49704 18.1661 3.50606 18.3271 3.56081 18.4753C3.61555 18.6236 3.71356 18.7525 3.84244 18.8458C3.97132 18.939 4.1253 18.9924 4.2849 18.9993C4.44451 19.0061 4.60258 18.966 4.73914 18.8841L10.0025 15.6867Z" fill="#D9D9D9"/>
</svg>
