<svg width="32" height="32" viewBox="0 0 32 32" fill="none" xmlns="http://www.w3.org/2000/svg">
<path d="M16.2541 25.7638C16.0866 25.7638 15.9178 25.7638 15.7541 25.7638L11.7478 28C10.1882 27.4754 8.74167 26.6611 7.48409 25.6L7.46909 21.1C7.38034 20.96 7.29659 20.8187 7.21909 20.6737L3.23534 18.405C2.92155 16.8179 2.92155 15.1846 3.23534 13.5975L7.21534 11.335C7.29659 11.1913 7.38034 11.0487 7.46534 10.9087L7.48534 6.40875C8.74179 5.34455 10.188 4.52731 11.7478 4L15.7478 6.23625C15.9153 6.23625 16.0841 6.23625 16.2478 6.23625L20.2478 4C21.8074 4.52461 23.254 5.33886 24.5116 6.4L24.5266 10.9C24.6153 11.04 24.6991 11.1813 24.7766 11.3263L28.7578 13.5938C29.0716 15.1809 29.0716 16.8141 28.7578 18.4013L24.7778 20.6637C24.6966 20.8075 24.6128 20.95 24.5278 21.09L24.5078 25.59C23.2522 26.6544 21.8069 27.472 20.2478 28L16.2541 25.7638Z" stroke="#747474" stroke-width="2" stroke-linecap="round" stroke-linejoin="round"/>
<path d="M16 21C18.7614 21 21 18.7614 21 16C21 13.2386 18.7614 11 16 11C13.2386 11 11 13.2386 11 16C11 18.7614 13.2386 21 16 21Z" stroke="#747474" stroke-width="2" stroke-linecap="round" stroke-linejoin="round"/>
</svg>
