<svg width="11" height="10" viewBox="0 0 11 10" fill="none" xmlns="http://www.w3.org/2000/svg">
<path d="M1.1 8.88889H9.9V7.77778H1.1V8.88889ZM3.3 5.55556H4.4V3.88889C4.4 3.58333 4.5078 3.32185 4.7234 3.10444C4.939 2.88704 5.19787 2.77815 5.5 2.77778V1.66667C4.895 1.66667 4.37708 1.88426 3.94625 2.31944C3.51542 2.75463 3.3 3.27778 3.3 3.88889V5.55556ZM2.75 6.66667H8.25V3.88889C8.25 3.12037 7.98178 2.46537 7.44535 1.92389C6.90892 1.38241 6.26047 1.11148 5.5 1.11111C4.73953 1.11074 4.09108 1.38167 3.55465 1.92389C3.01822 2.46611 2.75 3.12111 2.75 3.88889V6.66667ZM1.1 10C0.7975 10 0.538633 9.8913 0.3234 9.67389C0.108167 9.45648 0.000366667 9.19481 0 8.88889V7.77778C0 7.47222 0.1078 7.21074 0.3234 6.99333C0.539 6.77593 0.797867 6.66704 1.1 6.66667H1.65V3.88889C1.65 2.80556 2.02363 1.88667 2.7709 1.13222C3.51817 0.377778 4.42787 0.000370643 5.5 2.72331e-07C6.57213 -0.000370098 7.48202 0.377037 8.22965 1.13222C8.97728 1.88741 9.35073 2.8063 9.35 3.88889V6.66667H9.9C10.2025 6.66667 10.4615 6.77556 10.6771 6.99333C10.8927 7.21111 11.0004 7.47259 11 7.77778V8.88889C11 9.19444 10.8924 9.45611 10.6771 9.67389C10.4619 9.89167 10.2029 10.0004 9.9 10H1.1Z" fill="#747474"/>
</svg>
