<svg width="110" height="110" viewBox="0 0 110 110" fill="none" xmlns="http://www.w3.org/2000/svg">
<path d="M55 105C82.6142 105 105 82.6142 105 55C105 27.3858 82.6142 5 55 5C27.3858 5 5 27.3858 5 55C5 82.6142 27.3858 105 55 105Z" stroke="#747474" stroke-width="2" stroke-linecap="round" stroke-linejoin="round"/>
<path d="M39.5312 51.5625C42.379 51.5625 44.6875 49.254 44.6875 46.4062C44.6875 43.5585 42.379 41.25 39.5312 41.25C36.6835 41.25 34.375 43.5585 34.375 46.4062C34.375 49.254 36.6835 51.5625 39.5312 51.5625Z" fill="#747474"/>
<path d="M65.3125 46.4062H75.625" stroke="#747474" stroke-width="2" stroke-linecap="round" stroke-linejoin="round"/>
<path d="M72.1875 65.3125C68.6211 71.4785 62.6355 75.625 55 75.625C47.3645 75.625 41.3789 71.4785 37.8125 65.3125" stroke="#747474" stroke-width="2" stroke-linecap="round" stroke-linejoin="round"/>
</svg>
