<svg width="19" height="18" viewBox="0 0 19 18" fill="none" xmlns="http://www.w3.org/2000/svg">
<rect width="19" height="18" rx="2" fill="#F2F2F2"/>
<path d="M4.42857 8H7V14H4.42857C4.31491 14 4.2059 13.9514 4.12553 13.8648C4.04515 13.7783 4 13.6609 4 13.5385V8.46154C4 8.33913 4.04515 8.22174 4.12553 8.13518C4.2059 8.04863 4.31491 8 4.42857 8Z" stroke="#747474" stroke-linecap="round" stroke-linejoin="round"/>
<path d="M7 8.91304L9.10533 5C9.55202 5 9.98042 5.16491 10.2963 5.45844C10.6121 5.75198 10.7896 6.1501 10.7896 6.56522V7.73913H14.1581C14.2776 7.73916 14.3956 7.76281 14.5045 7.80851C14.6134 7.85421 14.7105 7.9209 14.7895 8.00417C14.8685 8.08745 14.9276 8.18538 14.9627 8.29148C14.9979 8.39759 15.0083 8.50942 14.9934 8.61957L14.3618 13.3152C14.3362 13.5043 14.2372 13.6782 14.0834 13.8043C13.9296 13.9304 13.7316 13.9999 13.5265 14H7" stroke="#747474" stroke-linecap="round" stroke-linejoin="round"/>
</svg>
