<svg width="10" height="10" viewBox="0 0 10 10" fill="none" xmlns="http://www.w3.org/2000/svg">
<path d="M3.15278 3.0605C3.02048 3.1955 2.88368 3.3008 2.75003 3.38V8.9303L6.57912 9.48065C7.02174 9.54513 7.47272 9.44662 7.84814 9.20345C8.22716 8.9573 8.50704 8.58515 8.63834 8.1527L9.4317 5.56385C9.50192 5.33396 9.51827 5.09098 9.47948 4.85376C9.4407 4.61653 9.34782 4.39141 9.20805 4.19585C9.06928 4.00266 8.88689 3.84494 8.67569 3.7355C8.4657 3.62721 8.2329 3.5706 7.99664 3.57035H6.36177C6.4595 3.32182 6.53421 3.06484 6.58497 2.80265C6.63394 2.54968 6.65865 2.29261 6.65877 2.03495C6.65877 1.62815 6.50037 1.23755 6.21822 0.94955C5.93651 0.662 5.55401 0.5 5.1553 0.5C4.7566 0.5 4.37409 0.662 4.09239 0.95C3.80955 1.24028 3.65144 1.62966 3.65184 2.03495C3.65184 2.3036 3.50603 2.6996 3.15278 3.0605ZM2.39002 2.75H0.860004C0.764525 2.75 0.672957 2.78793 0.605443 2.85544C0.537929 2.92295 0.5 3.01452 0.5 3.11V9.14C0.5 9.23548 0.537929 9.32705 0.605443 9.39456C0.672957 9.46207 0.764525 9.5 0.860004 9.5H2.39002C2.4855 9.5 2.57707 9.46207 2.64458 9.39456C2.7121 9.32705 2.75003 9.23548 2.75003 9.14V3.11C2.75003 3.01452 2.7121 2.92295 2.64458 2.85544C2.57707 2.78793 2.4855 2.75 2.39002 2.75Z" stroke="#F85345" stroke-miterlimit="10" stroke-linejoin="round"/>
</svg>
