<svg width="12" height="12" viewBox="0 0 12 12" fill="none" xmlns="http://www.w3.org/2000/svg">
<path d="M3.74229 3.6295C3.58059 3.7945 3.41338 3.9232 3.25003 4.02V10.8037L7.93004 11.4764C8.47102 11.5552 9.02221 11.4348 9.48105 11.1376C9.94431 10.8367 10.2864 10.3818 10.4469 9.8533L11.4165 6.68915C11.5023 6.40817 11.5223 6.1112 11.4749 5.82126C11.4275 5.53131 11.314 5.25617 11.1432 5.01715C10.9736 4.78103 10.7506 4.58826 10.4925 4.4545C10.2359 4.32215 9.95133 4.25295 9.66256 4.25265H7.66438C7.78383 3.94889 7.87515 3.6348 7.93719 3.31435C7.99703 3.00516 8.02724 2.69097 8.02739 2.37605C8.02739 1.87885 7.83378 1.40145 7.48893 1.04945C7.14463 0.698 6.67712 0.5 6.18982 0.5C5.70251 0.5 5.235 0.698 4.8907 1.05C4.54501 1.40479 4.35176 1.88069 4.35224 2.37605C4.35224 2.7044 4.17404 3.1884 3.74229 3.6295ZM2.81003 3.25H0.940005C0.823308 3.25 0.711392 3.29636 0.628875 3.37887C0.546358 3.46139 0.5 3.5733 0.5 3.69V11.06C0.5 11.1767 0.546358 11.2886 0.628875 11.3711C0.711392 11.4536 0.823308 11.5 0.940005 11.5H2.81003C2.92672 11.5 3.03864 11.4536 3.12116 11.3711C3.20367 11.2886 3.25003 11.1767 3.25003 11.06V3.69C3.25003 3.5733 3.20367 3.46139 3.12116 3.37887C3.03864 3.29636 2.92672 3.25 2.81003 3.25Z" stroke="#F85345" stroke-miterlimit="10" stroke-linejoin="round"/>
</svg>
